<?xml version="1.0" encoding="UTF-8" standalone="no"?>
<svg
   xmlns:dc="http://purl.org/dc/elements/1.1/"
   xmlns:cc="http://creativecommons.org/ns#"
   xmlns:rdf="http://www.w3.org/1999/02/22-rdf-syntax-ns#"
   xmlns:svg="http://www.w3.org/2000/svg"
   xmlns="http://www.w3.org/2000/svg"
   xmlns:sodipodi="http://sodipodi.sourceforge.net/DTD/sodipodi-0.dtd"
   xmlns:inkscape="http://www.inkscape.org/namespaces/inkscape"
   viewBox="0 0 500 500"
   height="500"
   width="500"
   xml:space="preserve"
   id="svg29"
   version="1.1"
   sodipodi:docname="SCW.svg"
   inkscape:version="0.92.3 (3ce5693, 2018-03-11)"><sodipodi:namedview
     pagecolor="#ffffff"
     bordercolor="#666666"
     borderopacity="1"
     objecttolerance="10"
     gridtolerance="10"
     guidetolerance="10"
     inkscape:pageopacity="0"
     inkscape:pageshadow="2"
     inkscape:window-width="1920"
     inkscape:window-height="1028"
     id="namedview79"
     showgrid="false"
     inkscape:zoom="1.688"
     inkscape:cx="250"
     inkscape:cy="274.69668"
     inkscape:window-x="0"
     inkscape:window-y="0"
     inkscape:window-maximized="1"
     inkscape:current-layer="g37" /><metadata
     id="metadata35"><rdf:RDF><cc:Work
         rdf:about=""><dc:format>image/svg+xml</dc:format><dc:type
           rdf:resource="http://purl.org/dc/dcmitype/StillImage" /><dc:title /></cc:Work></rdf:RDF></metadata><defs
     id="defs33"><clipPath
       id="clipPath45"
       clipPathUnits="userSpaceOnUse"><path
         style="clip-rule:evenodd"
         id="path43"
         d="M 0,0 H 375 V 375.75 H 0 Z" /></clipPath><clipPath
       id="clipPath57"
       clipPathUnits="userSpaceOnUse"><path
         style="clip-rule:evenodd"
         id="path55"
         d="M 0,0 H 375 V 375 H 0 Z" /></clipPath><clipPath
       id="clipPath71"
       clipPathUnits="userSpaceOnUse"><path
         style="clip-rule:evenodd"
         id="path69"
         d="M 114,114 H 261 V 261 H 114 Z" /></clipPath><clipPath
       id="clipPath111"
       clipPathUnits="userSpaceOnUse"><path
         style="clip-rule:evenodd"
         id="path109"
         d="M 0,0 H 375 V 375 H 0 Z" /></clipPath><clipPath
       id="clipPath133"
       clipPathUnits="userSpaceOnUse"><path
         style="clip-rule:evenodd"
         id="path131"
         d="m 213,121.5 h 36.75 v 36.75 H 213 Z" /></clipPath><clipPath
       id="clipPath155"
       clipPathUnits="userSpaceOnUse"><path
         style="clip-rule:evenodd"
         id="path153"
         d="m 126.75,124.5 h 31.5 v 30 h -31.5 z" /></clipPath></defs><g
     style="opacity:1"
     transform="matrix(1.3333333,0,0,1.3333333,0,9.2e-6)"
     id="g37"><g
   id="g39"
   style=""><g
     clip-path="url(#clipPath45)"
     id="g41"
     style=""><g
       transform="scale(0.75)"
       id="g47"
       style=""><path
         id="path49"
         style="fill:#ffffff;fill-opacity:1;fill-rule:nonzero;stroke:none"
         d="M 0,0 H 500 V 501 H 0 Z" /></g></g></g><g
   id="g51"
   transform="translate(5.3317537,2.221564)"><g
     clip-path="url(#clipPath57)"
     id="g53"><g
       style="display:inline"
       transform="scale(0.75)"
       id="g59"><path
         id="path61"
         style="fill:#ffffff;fill-opacity:1;fill-rule:nonzero;stroke:none"
         d="M 0,0 H 500 V 500 H 0 Z"
         inkscape:connector-curvature="0" /><path
         id="path63"
         style="fill:#ff5c5c;fill-opacity:1;fill-rule:nonzero;stroke:none"
         d="M 0,0 H 500 V 500 H 0 Z"
         inkscape:connector-curvature="0" /></g></g></g><g
   id="g65"
   style=""><g
     clip-path="url(#clipPath71)"
     id="g67"
     style=""><g
       transform="matrix(0.24499999,0,0,0.24499999,113.755,113.755)"
       id="g73"
       style=""><path
         id="path75"
         style="fill:#ffffff;fill-opacity:1;fill-rule:nonzero;stroke:none"
         d="M 582.20001,582.20001 H 600 V 600 h -17.79999 z" /></g><g
       transform="matrix(0.24499999,0,0,0.24499999,114.245,114)"
       id="g77"
       style=""><path
         id="path79"
         style="fill:#ffffff;fill-opacity:1;fill-rule:nonzero;stroke:none"
         d="M 0,18 H 18 V 582.20001 H 0 Z" /></g><g
       transform="matrix(0.24499999,0,0,0.24499999,114.245,113.755)"
       id="g81"
       style=""><path
         id="path83"
         style="fill:#ffffff;fill-opacity:1;fill-rule:nonzero;stroke:none"
         d="M 0,582.20001 H 18 V 600 H 0 Z" /></g><g
       transform="matrix(0.24499999,0,0,0.24499999,113.755,114)"
       id="g85"
       style=""><path
         id="path87"
         style="fill:#ffffff;fill-opacity:1;fill-rule:nonzero;stroke:none"
         d="M 582.20001,18 H 600 v 564.20001 h -17.79999 z" /></g><g
       transform="matrix(0.24499999,0,0,0.24499999,114,113.755)"
       id="g89"
       style=""><path
         id="path91"
         style="fill:#ffffff;fill-opacity:1;fill-rule:nonzero;stroke:none"
         d="M 18,582.20001 H 582.20001 V 600 H 18 Z" /></g><g
       transform="matrix(0.24499999,0,0,0.24499999,113.755,114.245)"
       id="g93"
       style=""><path
         id="path95"
         style="fill:#ffffff;fill-opacity:1;fill-rule:nonzero;stroke:none"
         d="M 582.20001,0 H 600 v 18 h -17.79999 z" /></g><g
       transform="matrix(0.24499999,0,0,0.24499999,114.245,114.245)"
       id="g97"
       style=""><path
         id="path99"
         style="fill:#ffffff;fill-opacity:1;fill-rule:nonzero;stroke:none"
         d="M 0,0 H 18 V 18 H 0 Z" /></g><g
       transform="matrix(0.24499999,0,0,0.24499999,114,114.245)"
       id="g101"
       style=""><path
         id="path103"
         style="fill:#ffffff;fill-opacity:1;fill-rule:nonzero;stroke:none"
         d="M 18,0 H 582.20001 V 18 H 18 Z" /></g></g></g><g
   id="g105"
   style=""><g
     clip-path="url(#clipPath111)"
     id="g107"
     style=""><g
       transform="matrix(0.75,0,0,0.75,126,132.77)"
       id="g113"
       style=""><text
   id="text117"
   style="font-variant:normal;font-weight:normal;font-size:0px;font-family:Arial;-inkscape-font-specification:Arial;writing-mode:lr-tb;fill:#ffffff;fill-opacity:1;fill-rule:nonzero;stroke:none"
   transform="translate(58.046875,63)"><tspan
     id="tspan115"
     y="0"
     x="0"
     style="">S</tspan></text>

<text
   id="text121"
   style="font-variant:normal;font-weight:normal;font-size:0px;font-family:Arial;-inkscape-font-specification:Arial;writing-mode:lr-tb;fill:#ffffff;fill-opacity:1;fill-rule:nonzero;stroke:none"
   transform="translate(19.515625,138)"><tspan
     id="tspan119"
     y="0"
     x="0"
     style="">C</tspan></text>

<text
   id="text125"
   style="font-variant:normal;font-weight:normal;font-size:0px;font-family:Arial;-inkscape-font-specification:Arial;writing-mode:lr-tb;fill:#ffffff;fill-opacity:1;fill-rule:nonzero;stroke:none"
   transform="translate(75.328125,138)"><tspan
     id="tspan123"
     y="0"
     x="0"
     style="">W</tspan></text>

</g></g></g><g
   id="g127"
   style=""><g
     clip-path="url(#clipPath133)"
     id="g129"
     style=""><g
       transform="matrix(0.31891146,0,0,0.31901321,213.00507,121.5)"
       id="g135"
       style=""><path
         id="path137"
         style="fill:#e9482b;fill-opacity:1;fill-rule:nonzero;stroke:none"
         d="m 100.564,66.82 c -2.502995,0.503997 -4.55,2.285003 -5.385999,4.696998 -0.464996,1.329003 -1.005996,2.614998 -1.61,3.866997 -1.118004,2.299004 -0.929001,5.014 0.485,7.133003 L 100.303,91.893997 93.376999,98.82 84.004997,92.569 c -1.202003,-0.797996 -2.595001,-1.209999 -3.993004,-1.209999 -1.069,0 -2.144996,0.239998 -3.137001,0.721001 -1.251999,0.605003 -2.538002,1.150001 -3.874,1.613998 -2.404999,0.833 -4.190003,2.886002 -4.690003,5.386002 L 66.095993,110.115 H 56.301994 L 54.095001,99.080002 c -0.499,-2.5 -2.285,-4.553002 -4.688999,-5.386002 -1.328999,-0.463997 -2.623001,-1.001999 -3.875,-1.61 -0.993999,-0.484002 -2.065998,-0.724999 -3.134998,-0.724999 -1.400002,0 -2.792,0.412003 -3.994,1.209999 l -9.376999,6.251 -6.926,-6.926003 6.247999,-9.376999 c 1.413,-2.119003 1.6,-4.830002 0.492001,-7.125 -0.605,-1.251999 -1.15,-2.539001 -1.613001,-3.871002 -0.834,-2.407997 -2.886999,-4.194 -5.386999,-4.693001 L 10.804005,64.616997 10.8,54.818001 21.839001,52.611 c 2.5,-0.5 4.552999,-2.285 5.387001,-4.689999 0.462999,-1.328998 1.002001,-2.622001 1.608999,-3.874 1.115,-2.292999 0.927999,-5.006001 -0.488001,-7.133 l -6.248001,-9.368999 6.926001,-6.926001 9.377,6.243 c 1.202,0.802 2.594002,1.210001 3.994,1.210001 1.068001,0 2.137001,-0.239999 3.134998,-0.718 1.244999,-0.604 2.539002,-1.146 3.867001,-1.610001 2.411999,-0.84 4.198002,-2.889999 4.696998,-5.385999 l 2.208001,-11.0389998 9.794002,-0.003 2.209,11.0419998 c 0.498001,2.496 2.285003,4.545999 4.695999,5.385999 1.329002,0.465001 2.615997,0.998 3.866997,1.610001 0.999,0.478001 2.067001,0.718 3.143997,0.718 1.398002,0 2.791,-0.408001 3.993004,-1.209999 l 9.372001,-6.243 6.926002,6.926001 -6.249999,9.369001 c -1.414002,2.126999 -1.596001,4.834 -0.491997,7.133 0.603996,1.248001 1.152001,2.538002 1.616997,3.867 0.835998,2.411999 2.883003,4.196999 5.385999,4.696999 l 11.032,2.207001 0.007,9.798999 z" /><path
         id="path139"
         style="fill:#1e365c;fill-opacity:1;fill-rule:nonzero;stroke:none"
         d="M 109.409,45.643002 98.377998,43.436001 C 97.821999,41.836002 97.168999,40.292 96.444,38.795002 l 6.25,-9.373001 c 1.906,-2.858 1.526,-6.658001 -0.899,-9.084 l -6.926004,-6.926 c -1.391999,-1.396 -3.231003,-2.109 -5.098,-2.109 C 88.392998,11.303001 87,11.696 85.787994,12.512 l -9.375999,6.244001 c -1.504997,-0.725001 -3.052002,-1.375 -4.647003,-1.928 L 69.556999,5.789 C 68.889,2.4219999 65.929001,0 62.497002,0 h -9.794999 c -3.430999,0 -6.383998,2.4219999 -7.058998,5.789 l -2.208,11.038999 c -1.599998,0.553 -3.144001,1.202999 -4.640999,1.928 l -9.371999,-6.244 c -1.225001,-0.816 -2.613001,-1.208999 -3.994,-1.208999 -1.858999,0 -3.702,0.713 -5.094,2.109 l -6.926,6.925999 c -2.426001,2.426001 -2.807,6.226 -0.9,9.084 l 6.247,9.372999 c -0.728001,1.497002 -1.374001,3.043999 -1.931,4.640999 L 5.79,45.643002 C 2.4230001,46.318001 0,49.271 0,52.702 V 62.5 c 0,3.428001 2.4230001,6.389 5.79,7.059998 l 11.035001,2.211998 c 0.556999,1.592002 1.207,3.142997 1.931,4.640998 l -6.247,9.369004 c -1.906,2.854004 -1.525,6.662002 0.899999,9.087997 l 6.926001,6.926005 c 1.392,1.389 3.233999,2.109 5.094,2.109 1.381,0 2.773001,-0.401 3.993999,-1.21 l 9.371998,-6.251 c 1.497002,0.731003 3.041001,1.378998 4.640999,1.933998 l 2.208,11.032002 c 0.674999,3.372 3.627999,5.79 7.058998,5.79 h 9.794998 c 3.432,0 6.391999,-2.418 7.059998,-5.79 l 2.214996,-11.032002 c 1.597,-0.555 3.143998,-1.205001 4.640999,-1.933998 l 9.376,6.251 c 1.212997,0.809 2.605003,1.21 3.983001,1.21 1.865998,0 3.706002,-0.721 5.098,-2.109 l 6.926003,-6.926005 c 2.426,-2.426002 2.806,-6.234001 0.899,-9.087997 l -6.249998,-9.369004 c 0.730003,-1.505996 1.377998,-3.053001 1.933998,-4.648002 l 11.031,-2.204003 c 3.369,-0.670997 5.795,-3.632003 5.795,-7.060001 v -9.798 C 115.204,49.271 112.778,46.318001 109.409,45.643002 m -12.445003,19.062 c -2.501999,0.501999 -4.549004,2.285003 -5.385002,4.695999 -0.464997,1.329002 -1.005997,2.615997 -1.611,3.866997 -1.116997,2.300003 -0.928002,5.013 0.486,7.134002 l 6.25,9.375 -6.926003,6.926003 -9.373001,-6.25 c -1.200996,-0.799004 -2.594002,-1.209 -3.993004,-1.209 -1.069,0 -2.144996,0.237999 -3.136001,0.721001 -1.251999,0.603996 -2.539002,1.148003 -3.875,1.612999 -2.404,0.833 -4.189003,2.887001 -4.689003,5.386002 L 62.497002,108 h -9.794999 l -2.207,-11.036003 c -0.5,-2.499001 -2.285,-4.553002 -4.688999,-5.386002 -1.330002,-0.464996 -2.623002,-1.001999 -3.875,-1.61 -0.994,-0.485001 -2.065999,-0.723999 -3.136002,-0.723999 -1.398998,0 -2.792,0.410003 -3.993,1.208999 l -9.376999,6.25 -6.926001,-6.926002 6.248,-9.375 c 1.412,-2.121002 1.6,-4.831001 0.492,-7.126999 -0.604999,-1.251999 -1.149999,-2.538002 -1.614,-3.871002 -0.833,-2.407997 -2.886,-4.193001 -5.386,-4.693001 L 7.204,62.5 7.2,52.702 18.238998,50.493999 c 2.5,-0.499 4.553,-2.284999 5.386,-4.688999 0.464001,-1.328998 1.002001,-2.623001 1.610001,-3.875 1.114,-2.291 0.927999,-5.006 -0.488001,-7.132999 l -6.248001,-9.369 6.926,-6.926 9.377001,6.243999 c 1.201,0.801001 2.594002,1.209 3.993,1.209 1.069,0 2.138001,-0.238001 3.136002,-0.717001 1.243999,-0.605 2.539001,-1.146 3.867,-1.610001 2.411999,-0.840999 4.196999,-2.889999 4.696999,-5.385999 L 52.702,7.2029991 l 9.795002,-0.004 2.208,11.0429999 c 0.499,2.496 2.285003,4.545 4.695999,5.385999 1.330002,0.464001 2.615997,0.999001 3.866997,1.610001 0.999,0.479 2.068001,0.716999 3.143997,0.716999 1.399002,0 2.792,-0.408001 3.993004,-1.209 l 9.373001,-6.243999 6.926002,6.926 -6.25,9.369002 c -1.414001,2.126999 -1.597,4.834 -0.491996,7.132999 0.603996,1.248001 1.152,2.539002 1.616996,3.867001 0.835999,2.411999 2.883004,4.198002 5.385003,4.696998 L 107.997,52.702 108.003,62.5 Z" /><path
         id="path141"
         style="fill:#1e365c;fill-opacity:1;fill-rule:nonzero;stroke:none"
         d="m 57.604,32.402 c -13.915001,0 -25.200001,11.285 -25.200001,25.201001 0,13.913997 11.285,25.199001 25.200001,25.199001 13.914997,0 25.200001,-11.285004 25.200001,-25.198998 C 82.804001,43.688 71.518997,32.402 57.604,32.402 m 0,47.25 c -12.179001,0 -22.049999,-9.878997 -22.049999,-22.048999 0,-12.179001 9.871002,-22.050999 22.049999,-22.050999 12.171002,0 22.049999,9.872002 22.049999,22.051002 C 79.653,69.773003 69.774002,79.652 57.604,79.652" /><path
         id="path143"
         style="fill:#1e365c;fill-opacity:1;fill-rule:nonzero;stroke:none"
         d="m 57.604,43.202999 c -7.959999,0 -14.398998,6.439999 -14.398998,14.399998 0,7.951004 6.438999,14.399002 14.399002,14.399002 7.952003,0 14.399002,-6.447998 14.399002,-14.399002 C 72.002998,49.644001 65.556,43.202999 57.604,43.202999 m 0,25.199001 c -5.962002,0 -10.799999,-4.836998 -10.799999,-10.798999 0,-5.963002 4.838001,-10.800999 10.799999,-10.800999 5.961998,0 10.799999,4.838001 10.799999,10.800999 C 68.403,63.564999 63.564999,68.402 57.604,68.402" /><path
         id="path145"
         style="fill:#1e365c;fill-opacity:1;fill-rule:nonzero;stroke:none"
         d="m 57.604,32.402 c -13.915001,0 -25.200001,11.285 -25.200001,25.201001 0,13.913997 11.285,25.199001 25.200001,25.199001 13.914997,0 25.200001,-11.285004 25.200001,-25.198998 C 82.804001,43.688 71.518997,32.402 57.604,32.402 m 0,47.25 c -12.179001,0 -22.049999,-9.878997 -22.049999,-22.048999 0,-12.179001 9.871002,-22.050999 22.049999,-22.050999 12.171002,0 22.049999,9.872002 22.049999,22.051002 C 79.653,69.773003 69.774002,79.652 57.604,79.652" /><path
         id="path147"
         style="fill:#1e365c;fill-opacity:1;fill-rule:nonzero;stroke:none"
         d="m 57.604,43.202999 c -7.959999,0 -14.398998,6.439999 -14.398998,14.399998 0,7.951004 6.438999,14.399002 14.399002,14.399002 7.952003,0 14.399002,-6.447998 14.399002,-14.399002 C 72.002998,49.644001 65.556,43.202999 57.604,43.202999 m 0,25.199001 c -5.962002,0 -10.799999,-4.836998 -10.799999,-10.798999 0,-5.963002 4.838001,-10.800999 10.799999,-10.800999 5.961998,0 10.799999,4.838001 10.799999,10.800999 C 68.403,63.564999 63.564999,68.402 57.604,68.402" /></g></g></g><g
   id="g149"
   style=""><g
     clip-path="url(#clipPath155)"
     id="g151"
     style=""><g
       transform="matrix(0.0629929,0,0,0.06309149,126.75178,124.5)"
       id="g157"
       style=""><path
         id="path159"
         style="fill:#ffffff;fill-opacity:1;fill-rule:nonzero;stroke:none"
         d="M 404.5,475.5 250,394.29999 95.5,475.5 125,303.5 0,181.60001 172.7,156.5 250,0 327.29999,156.5 500,181.60001 375,303.5 Z M 28.700001,191 139.3,298.79999 113.20001,451.09998 250,379.20001 l 136.70001,71.9 -26.1,-152.30002 L 471.29999,191 318.39999,168.8 250,30.200001 181.60001,168.7 Z" /></g></g></g><text
   transform="scale(1.0949099,0.91331718)"
   id="text171"
   y="212.5966"
   x="150.7856"
   style="font-style:normal;font-weight:normal;font-size:66.93687439px;line-height:1.25;font-family:sans-serif;letter-spacing:0px;word-spacing:0px;fill:#f9f9f9;fill-opacity:1;stroke:none;stroke-width:1.67342198"
   xml:space="preserve"><tspan
     style="fill:#f9f9f9;stroke-width:1.67342198"
     y="212.5966"
     x="150.7856"
     id="tspan169">S</tspan></text>

<text
   transform="scale(0.92713833,1.0785877)"
   id="text175"
   y="228.63727"
   x="148.66391"
   style="font-style:normal;font-weight:normal;font-size:56.13558197px;line-height:1.25;font-family:sans-serif;letter-spacing:0px;word-spacing:0px;fill:#f2f2f2;fill-opacity:1;stroke:none;stroke-width:1.40338945"
   xml:space="preserve"><tspan
     style="fill:#f2f2f2;stroke-width:1.40338945"
     y="228.63727"
     x="148.66391"
     id="tspan173">C W</tspan></text>

</g></svg>